<svg width="181" height="46" viewBox="0 0 181 46" fill="none" xmlns="http://www.w3.org/2000/svg">
<path d="M0.9375 45V1.25H7.9375V45H0.9375ZM11.125 25.25V18.4375H15.3125C18.3542 18.4375 20 16.9583 20.25 14C20.25 13.75 20.25 13.5 20.25 13.25C19.9583 9.95833 18.3125 8.22917 15.3125 8.0625H11.125V1.25H15.875C23.4583 1.375 27.2708 5.33333 27.3125 13.125C27.3125 19.1667 25.3958 22.9375 21.5625 24.4375C19.9792 24.9792 18.0833 25.25 15.875 25.25C15.7917 25.25 14.2083 25.25 11.125 25.25ZM30.75 32.8125V12.25C30.75 10.0417 31.6875 7.79167 33.5625 5.5C36.0625 2.5 39.2292 0.979167 43.0625 0.9375V7.875C40.8958 7.91667 39.2708 9.08333 38.1875 11.375C37.8542 12.125 37.6875 12.75 37.6875 13.25V32.8125C37.6875 35.0625 38.8542 36.7292 41.1875 37.8125C41.8958 38.1458 42.5 38.3125 43 38.3125V45.3125C40.625 45.3125 38.25 44.4583 35.875 42.75C32.5 40.25 30.7917 36.9375 30.75 32.8125ZM46.4375 45.3125V38.3125C47.5208 38.3125 48.6458 37.8125 49.8125 36.8125C51.0625 35.6875 51.7083 34.3542 51.75 32.8125V13.25C51.75 12 51.2083 10.7917 50.125 9.625C49.0833 8.5 47.8542 7.91667 46.4375 7.875V0.9375C50.6458 0.9375 54.0208 2.75 56.5625 6.375C58.0208 8.45833 58.75 10.4167 58.75 12.25V32.8125C58.75 37.4375 56.6875 40.9792 52.5625 43.4375C50.3958 44.6875 48.3542 45.3125 46.4375 45.3125ZM63.75 45V1.25H70.75V45H63.75ZM73.9375 26.5625V20.3125H77.4375C81.0625 20.3125 83.0625 18.5833 83.4375 15.125C83.4792 14.75 83.5 14.3958 83.5 14.0625C83.5 10.5625 81.9167 8.5 78.75 7.875C78.1667 7.79167 77.5625 7.75 76.9375 7.75H73.9375V1.25H77.75C83.2917 1.375 87.0208 3.4375 88.9375 7.4375C89.7292 9.10417 90.125 11.0208 90.125 13.1875C90.0833 17.8125 88.6667 21.1667 85.875 23.25C88.0417 24.5 89.4167 26.7292 90 29.9375C90.0833 30.4792 90.1458 30.9792 90.1875 31.4375L91.25 45H84.75L83.8125 33.875C83.4792 30.375 82.5417 28.1667 81 27.25C80.0833 26.7917 78.9375 26.5625 77.5625 26.5625H73.9375ZM93.75 8.0625V1.25H120.812V8.0625H110.812V45H103.812V8.0625H93.75ZM124.438 45V1.25H147.188V8.125H131.438V19.75H141.312V26.75H131.438V38.0625H147.188V45H124.438ZM152.25 45V12.375H152.75L159.25 22.8125V45H152.25ZM152.25 5.75V1.25H158.062L180.062 36.5625V45H176.688L152.25 5.75ZM173.062 19.5V1.25H180.062V29.9375H179.562L173.062 19.5Z" fill="white"/>
</svg>
